<?xml version="1.0" encoding="UTF-8"?>
<svg id="Layer_2" data-name="Layer 2" xmlns="http://www.w3.org/2000/svg" viewBox="0 0 178.95 178.95">
  <defs>
    <style>
      .cls-1 {
        fill: #ffffff;
      }
    </style>
  </defs>
  <g id="Layer_1-2" data-name="Layer 1">
    <g>
      <path class="cls-1" d="M174.43,102.96l-25.94-25.94h-45.76c.27,.49,.44,1.04,.44,1.63v26.3c0,.7-.21,1.34-.57,1.88h22.37c6.02,0,10.91,4.93,10.91,10.95s-4.9,10.92-10.91,10.92H57.23l45.73,45.73c6.02,6.02,15.85,6.02,21.87,0l8.6-8.6,4.18,4.18c1.36,1.33,3.57,1.33,4.89,0l3.03-3.03c1.36-1.36,1.36-3.57,0-4.9l-4.18-4.18,16.56-16.56,4.18,4.18c1.36,1.33,3.57,1.33,4.9,0l3.03-3.03c1.36-1.36,1.36-3.54,0-4.9l-4.18-4.18,8.6-8.6c6.02-6.02,6.02-15.84,0-21.86Z"/>
      <path class="cls-1" d="M95,78.65c0-.6,.17-1.15,.44-1.63h-22.16c-6.02,0-10.91-4.93-10.91-10.91s4.9-10.92,10.91-10.92h53.38L84.63,13.16c-6.02-6.02-15.85-6.02-21.86,0l-9.93,9.93L34.07,4.28c-5.71-5.71-15.1-5.71-20.81,0L4.28,13.26c-5.71,5.71-5.71,15.06,0,20.78l18.8,18.8-9.93,9.93c-6.02,5.98-6.02,15.84,0,21.86l22.24,22.2h60.18c-.36-.54-.57-1.19-.57-1.88v-26.3ZM28.36,47.54L9.59,28.77c-2.82-2.82-2.82-7.41,0-10.23l8.94-8.98c2.82-2.79,7.45-2.82,10.23,0l18.8,18.8-19.21,19.18Z"/>
    </g>
  </g>
</svg>