<?xml version="1.0" encoding="UTF-8"?>
<svg id="Layer_2" data-name="Layer 2" xmlns="http://www.w3.org/2000/svg" viewBox="0 0 284.24 251.32">
  <defs>
    <style>
      .cls-1 {
        fill: #fff;
      }
    </style>
  </defs>
  <g id="Layer_1-2" data-name="Layer 1">
    <g>
      <path class="cls-1" d="M227.08,102.96l-25.94-25.94h-45.76c.27,.49,.44,1.04,.44,1.63v26.3c0,.7-.21,1.34-.57,1.88h22.37c6.02,0,10.91,4.93,10.91,10.95s-4.9,10.92-10.91,10.92H109.87l45.73,45.73c6.02,6.02,15.85,6.02,21.87,0l8.6-8.6,4.18,4.18c1.36,1.33,3.57,1.33,4.89,0l3.03-3.03c1.36-1.36,1.36-3.57,0-4.9l-4.18-4.18,16.56-16.56,4.18,4.18c1.36,1.33,3.57,1.33,4.9,0l3.03-3.03c1.36-1.36,1.36-3.54,0-4.9l-4.18-4.18,8.6-8.6c6.02-6.02,6.02-15.84,0-21.86Z"/>
      <path class="cls-1" d="M147.65,78.65c0-.6,.17-1.15,.44-1.63h-22.16c-6.02,0-10.91-4.93-10.91-10.91s4.9-10.92,10.91-10.92h53.38L137.28,13.16c-6.02-6.02-15.85-6.02-21.86,0l-9.93,9.93L86.72,4.28c-5.71-5.71-15.1-5.71-20.81,0l-8.98,8.98c-5.71,5.71-5.71,15.06,0,20.78l18.8,18.8-9.93,9.93c-6.02,5.98-6.02,15.84,0,21.86l22.24,22.2h60.18c-.36-.54-.57-1.19-.57-1.88v-26.3Zm-66.64-31.11l-18.77-18.77c-2.82-2.82-2.82-7.41,0-10.23l8.94-8.98c2.82-2.79,7.45-2.82,10.23,0l18.8,18.8-19.21,19.18Z"/>
    </g>
    <g>
      <path class="cls-1" d="M0,220.71l1.53-3.44c1.46,.97,3.53,1.62,5.44,1.62s2.69-.54,2.69-1.34c0-2.62-9.38-.71-9.38-6.83,0-2.95,2.4-5.35,7.3-5.35,2.14,0,4.36,.5,5.98,1.44l-1.44,3.46c-1.58-.85-3.13-1.27-4.57-1.27-1.96,0-2.66,.66-2.66,1.48,0,2.52,9.35,.64,9.35,6.71,0,2.87-2.4,5.32-7.3,5.32-2.71,0-5.4-.73-6.95-1.81Z"/>
      <path class="cls-1" d="M16.73,213.95c0-4.95,3.89-8.58,9.17-8.58s9.17,3.63,9.17,8.58-3.89,8.58-9.17,8.58-9.17-3.63-9.17-8.58Zm13.62,0c0-2.85-1.96-4.71-4.45-4.71s-4.45,1.86-4.45,4.71,1.96,4.71,4.45,4.71,4.45-1.86,4.45-4.71Z"/>
      <path class="cls-1" d="M38.69,205.7h4.67v12.79h7.87v3.7h-12.53v-16.49Z"/>
      <path class="cls-1" d="M54.24,205.7h4.67v16.49h-4.67v-16.49Z"/>
      <path class="cls-1" d="M66.91,209.4h-5.07v-3.7h14.77v3.7h-5.04v12.79h-4.67v-12.79Z"/>
      <path class="cls-1" d="M89.77,218.99h-6.97l-1.29,3.2h-4.76l7.28-16.49h4.59l7.3,16.49h-4.85l-1.29-3.2Zm-1.37-3.44l-2.12-5.28-2.12,5.28h4.24Z"/>
      <path class="cls-1" d="M105.62,217.81h-2.54v4.38h-4.67v-16.49h7.54c4.5,0,7.33,2.33,7.33,6.1,0,2.43-1.18,4.22-3.23,5.21l3.56,5.18h-5l-2.99-4.38Zm.05-8.43h-2.59v4.83h2.59c1.93,0,2.9-.89,2.9-2.4s-.97-2.43-2.9-2.43Z"/>
      <path class="cls-1" d="M125.63,216.28v5.91h-4.67v-5.98l-6.29-10.51h4.92l3.91,6.55,3.91-6.55h4.52l-6.31,10.58Z"/>
      <path class="cls-1" d="M158.02,205.7v16.49h-4.67v-6.43h-6.36v6.43h-4.66v-16.49h4.66v6.2h6.36v-6.2h4.67Z"/>
      <path class="cls-1" d="M161.65,213.95c0-4.95,3.89-8.58,9.16-8.58s9.17,3.63,9.17,8.58-3.89,8.58-9.17,8.58-9.16-3.63-9.16-8.58Zm13.62,0c0-2.85-1.96-4.71-4.45-4.71s-4.45,1.86-4.45,4.71,1.96,4.71,4.45,4.71,4.45-1.86,4.45-4.71Z"/>
      <path class="cls-1" d="M183.61,205.7h4.66v12.79h7.87v3.7h-12.53v-16.49Z"/>
      <path class="cls-1" d="M206.32,216.28v5.91h-4.66v-5.98l-6.29-10.51h4.92l3.91,6.55,3.91-6.55h4.52l-6.31,10.58Z"/>
      <path class="cls-1" d="M214.92,205.7h7.8c5.47,0,9.21,3.18,9.21,8.25s-3.75,8.25-9.21,8.25h-7.8v-16.49Zm7.61,12.77c2.8,0,4.69-1.67,4.69-4.52s-1.88-4.52-4.69-4.52h-2.95v9.05h2.95Z"/>
      <path class="cls-1" d="M246.38,218.99h-6.97l-1.29,3.2h-4.76l7.28-16.49h4.59l7.3,16.49h-4.85l-1.29-3.2Zm-1.37-3.44l-2.12-5.28-2.12,5.28h4.24Z"/>
      <path class="cls-1" d="M262.82,216.28v5.91h-4.66v-5.98l-6.29-10.51h4.92l3.91,6.55,3.91-6.55h4.52l-6.31,10.58Z"/>
      <path class="cls-1" d="M269.99,220.71l1.53-3.44c1.46,.97,3.53,1.62,5.44,1.62s2.69-.54,2.69-1.34c0-2.62-9.38-.71-9.38-6.83,0-2.95,2.4-5.35,7.3-5.35,2.14,0,4.36,.5,5.98,1.44l-1.44,3.46c-1.58-.85-3.13-1.27-4.57-1.27-1.96,0-2.66,.66-2.66,1.48,0,2.52,9.35,.64,9.35,6.71,0,2.87-2.4,5.32-7.3,5.32-2.71,0-5.39-.73-6.95-1.81Z"/>
    </g>
    <g>
      <path class="cls-1" d="M55.91,239.3h1.73v9.34h-1.73v-9.34Z"/>
      <path class="cls-1" d="M70.08,244.56v4.08h-1.67v-3.87c0-1.27-.63-1.88-1.69-1.88-1.19,0-1.99,.72-1.99,2.15v3.6h-1.67v-7.12h1.59v.92c.55-.65,1.41-1,2.45-1,1.71,0,2.97,.97,2.97,3.12Z"/>
      <path class="cls-1" d="M81.5,243.97c0-2.79,2.13-4.8,5-4.8,1.52,0,2.83,.55,3.69,1.56l-1.12,1.05c-.68-.73-1.52-1.09-2.49-1.09-1.93,0-3.33,1.36-3.33,3.28s1.4,3.28,3.33,3.28c.97,0,1.81-.36,2.49-1.11l1.12,1.07c-.87,1.01-2.17,1.56-3.71,1.56-2.85,0-4.99-2.01-4.99-4.8Z"/>
      <path class="cls-1" d="M94.77,238.74h1.67v9.9h-1.67v-9.9Z"/>
      <path class="cls-1" d="M107.65,244.47v4.17h-1.57v-.87c-.4,.61-1.17,.96-2.24,.96-1.63,0-2.65-.89-2.65-2.13s.8-2.12,2.96-2.12h1.84v-.11c0-.97-.59-1.55-1.77-1.55-.8,0-1.63,.27-2.16,.71l-.65-1.21c.76-.59,1.87-.88,3.01-.88,2.05,0,3.24,.97,3.24,3.03Zm-1.67,1.95v-.83h-1.72c-1.13,0-1.44,.43-1.44,.95,0,.6,.51,.99,1.36,.99s1.52-.37,1.8-1.11Z"/>
      <path class="cls-1" d="M112.03,247.93l.64-1.27c.63,.41,1.59,.71,2.48,.71,1.05,0,1.49-.29,1.49-.79,0-1.36-4.4-.08-4.4-2.92,0-1.35,1.21-2.23,3.13-2.23,.95,0,2.03,.23,2.67,.61l-.64,1.27c-.68-.4-1.36-.53-2.04-.53-1.01,0-1.49,.33-1.49,.8,0,1.44,4.4,.16,4.4,2.95,0,1.33-1.23,2.2-3.23,2.2-1.19,0-2.37-.35-3.01-.8Z"/>
      <path class="cls-1" d="M121.96,247.93l.64-1.27c.63,.41,1.59,.71,2.48,.71,1.05,0,1.49-.29,1.49-.79,0-1.36-4.4-.08-4.4-2.92,0-1.35,1.21-2.23,3.13-2.23,.95,0,2.03,.23,2.67,.61l-.64,1.27c-.68-.4-1.36-.53-2.04-.53-1.01,0-1.49,.33-1.49,.8,0,1.44,4.4,.16,4.4,2.95,0,1.33-1.23,2.2-3.23,2.2-1.19,0-2.37-.35-3.01-.8Z"/>
      <path class="cls-1" d="M147.91,246.11c0,1.6-1.25,2.53-3.65,2.53h-4.64v-9.34h4.37c2.24,0,3.44,.95,3.44,2.43,0,.96-.48,1.67-1.2,2.05,1,.32,1.68,1.11,1.68,2.32Zm-6.56-5.44v2.57h2.45c1.2,0,1.88-.43,1.88-1.28s-.68-1.29-1.88-1.29h-2.45Zm4.81,5.27c0-.93-.71-1.35-2.01-1.35h-2.8v2.69h2.8c1.31,0,2.01-.41,2.01-1.35Z"/>
      <path class="cls-1" d="M159.33,241.52l-3.33,7.7c-.65,1.61-1.56,2.11-2.75,2.11-.71,0-1.45-.24-1.91-.65l.67-1.23c.32,.31,.77,.49,1.23,.49,.59,0,.93-.28,1.25-.99l.12-.28-3.11-7.15h1.73l2.24,5.27,2.25-5.27h1.6Z"/>
      <path class="cls-1" d="M170.34,239.3h1.73v9.34h-1.73v-9.34Z"/>
      <path class="cls-1" d="M181.78,248.25c-.4,.32-1,.48-1.6,.48-1.56,0-2.45-.83-2.45-2.4v-3.43h-1.17v-1.33h1.17v-1.63h1.67v1.63h1.91v1.33h-1.91v3.39c0,.69,.35,1.07,.99,1.07,.35,0,.68-.09,.93-.29l.47,1.19Z"/>
      <path class="cls-1" d="M192.34,247.65l.6-1.35c.75,.6,1.93,1.03,3.08,1.03,1.45,0,2.07-.52,2.07-1.21,0-2.01-5.55-.69-5.55-4.16,0-1.51,1.2-2.79,3.76-2.79,1.12,0,2.29,.29,3.11,.83l-.55,1.35c-.84-.49-1.76-.73-2.57-.73-1.44,0-2.03,.56-2.03,1.27,0,1.99,5.53,.69,5.53,4.12,0,1.49-1.21,2.77-3.77,2.77-1.45,0-2.91-.45-3.68-1.12Z"/>
      <path class="cls-1" d="M211.08,245.61h-5.59c.2,1.04,1.07,1.71,2.31,1.71,.8,0,1.43-.25,1.93-.77l.89,1.03c-.64,.76-1.64,1.16-2.87,1.16-2.39,0-3.93-1.53-3.93-3.65s1.56-3.64,3.68-3.64,3.6,1.45,3.6,3.68c0,.13-.01,.33-.03,.49Zm-5.6-1.11h4.04c-.13-1.03-.92-1.73-2.01-1.73s-1.87,.69-2.03,1.73Z"/>
      <path class="cls-1" d="M215.77,238.74h1.67v9.9h-1.67v-9.9Z"/>
      <path class="cls-1" d="M224.53,241.14v.43h1.96v1.33h-1.91v5.73h-1.67v-5.73h-1.17v-1.33h1.17v-.45c0-1.49,.89-2.47,2.55-2.47,.57,0,1.13,.12,1.51,.39l-.47,1.25c-.25-.17-.57-.29-.92-.29-.69,0-1.05,.39-1.05,1.15Z"/>
    </g>
  </g>
</svg>